<svg xmlns="http://www.w3.org/2000/svg" width="48" height="48" viewBox="0 0 48 48" fill="none" aria-hidden="true">
  <defs>
    <style>
      .stroke { stroke: #374151; stroke-width: 2.5; stroke-linecap: round; stroke-linejoin: round; fill: none; }
      .fill { fill: #374151; }
    </style>
  </defs>
  <rect class="stroke" x="6" y="6" width="22" height="30" rx="2" ry="2"/>
  <rect class="stroke" x="10" y="2" width="14" height="6" rx="1.2" ry="1.2"/>
  <rect class="stroke" x="14" y="28" width="6" height="8" rx="0.8" ry="0.8"/>
  <rect class="stroke" x="9.5"  y="10" width="3.8" height="3.8" rx="0.8" ry="0.8"/>
  <rect class="stroke" x="16.7" y="10" width="3.8" height="3.8" rx="0.8" ry="0.8"/>
  <rect class="stroke" x="9.5"  y="15.5" width="3.8" height="3.8" rx="0.8" ry="0.8"/>
  <rect class="stroke" x="16.7" y="15.5" width="3.8" height="3.8" rx="0.8" ry="0.8"/>
  <rect class="stroke" x="9.5"  y="21" width="3.8" height="3.8" rx="0.8" ry="0.8"/>
  <rect class="stroke" x="16.7" y="21" width="3.8" height="3.8" rx="0.8" ry="0.8"/>
  <g transform="translate(30,28)">
    <g class="fill" transform="translate(0,0)">
      <rect x="-1.6" y="-10.5" width="3.2" height="5.2" rx="0.8" transform="rotate(0)"/>
      <rect x="-1.6" y="-10.5" width="3.2" height="5.2" rx="0.8" transform="rotate(45)"/>
      <rect x="-1.6" y="-10.5" width="3.2" height="5.2" rx="0.8" transform="rotate(90)"/>
      <rect x="-1.6" y="-10.5" width="3.2" height="5.2" rx="0.8" transform="rotate(135)"/>
      <rect x="-1.6" y="-10.5" width="3.2" height="5.2" rx="0.8" transform="rotate(180)"/>
      <rect x="-1.6" y="-10.5" width="3.2" height="5.2" rx="0.8" transform="rotate(225)"/>
      <rect x="-1.6" y="-10.5" width="3.2" height="5.2" rx="0.8" transform="rotate(270)"/>
      <rect x="-1.6" y="-10.5" width="3.2" height="5.2" rx="0.8" transform="rotate(315)"/>
    </g>
    <circle class="stroke" cx="0" cy="0" r="9.6"/>
    <circle class="stroke" cx="0" cy="0" r="4.0"/>
  </g>
  <line class="stroke" x1="4" y1="38" x2="38" y2="38" stroke-opacity="0.06"/>
</svg>